<svg width="262" height="350" viewBox="0 0 262 350" fill="none" xmlns="http://www.w3.org/2000/svg">
<path d="M4.26562 138.206V227.493C4.26562 229.199 5.11869 230.621 6.54046 231.474L131.372 303.7V138.206H4.26562Z" fill="#1D5162"/>
<path d="M110.331 255.077C110.331 243.987 119.43 234.887 130.52 234.887V275.55C119.43 275.55 110.331 266.451 110.331 255.077Z" fill="#90A5B1"/>
<path d="M88.4344 257.067C88.4344 233.749 107.202 214.982 130.519 214.982C130.519 213.276 130.519 212.138 130.519 212.138V163.798H108.908V179.438C103.79 180.859 99.2399 182.85 94.4059 185.409L83.316 174.319L53.1744 204.745L64.2643 215.835C61.7051 220.385 59.7146 225.219 58.2928 230.053H42.6533V248.252L94.4059 278.109C90.7093 271.853 88.4344 264.744 88.4344 257.067Z" fill="#628794"/>
<path d="M130.803 300.857L255.35 228.631C256.772 227.778 257.625 226.356 257.625 224.65V135.363H130.803V300.857Z" fill="#010101"/>
<g clip-path="url(#clip0_1706_3560)">
<path d="M212.653 174.403C210.094 171.275 207.25 168.432 203.554 166.726C200.142 165.02 196.161 163.882 192.18 163.882C188.199 163.882 184.502 164.735 180.805 166.726C177.393 168.432 174.265 170.991 171.706 174.403H212.653Z" fill="#1F5262"/>
<path d="M130.759 174.404C133.318 177.816 136.446 180.375 139.858 182.365C143.555 184.356 147.251 185.209 151.232 185.209C155.213 185.209 159.194 184.356 162.607 182.365C166.303 180.375 169.431 177.816 171.706 174.404H130.759Z" fill="#1F5262"/>
<path d="M212.653 174.404C215.213 177.816 218.34 180.375 221.753 182.365C225.449 184.356 229.146 185.209 233.127 185.209C237.108 185.209 241.089 184.356 244.501 182.365C248.198 180.375 251.326 177.816 253.6 174.404H212.653Z" fill="#1F5262"/>
<path d="M212.653 194.877C210.094 191.464 207.25 188.905 203.554 187.199C199.857 185.493 196.161 184.356 192.18 184.356C188.199 184.356 184.502 185.209 180.805 187.199C177.393 188.905 174.265 191.749 171.706 194.877H212.653Z" fill="#628794"/>
<path d="M130.759 194.877C133.318 198.005 136.446 200.564 139.858 202.27C143.555 203.976 147.251 204.829 151.232 204.829C155.213 204.829 159.194 203.976 162.607 202.27C166.303 200.564 169.431 198.005 171.706 194.877H130.759Z" fill="#628794"/>
<path d="M212.653 194.877C215.213 198.005 218.34 200.564 221.753 202.27C225.449 203.976 229.146 204.829 233.127 204.829C237.108 204.829 241.089 203.976 244.501 202.27C248.198 200.564 251.326 198.005 253.6 194.877H212.653Z" fill="#628794"/>
<path d="M212.653 215.066C210.094 211.938 207.25 209.095 203.554 207.389C200.142 205.683 196.161 204.545 192.18 204.545C188.199 204.545 184.502 205.398 180.805 207.389C177.393 209.095 174.265 211.654 171.706 215.066H212.653Z" fill="#1F5262"/>
<path d="M130.759 215.066C133.318 218.478 136.446 221.037 139.858 223.028C143.27 225.018 147.251 225.871 151.232 225.871C155.213 225.871 159.194 225.018 162.607 223.028C166.303 221.037 169.431 218.478 171.706 215.066H130.759Z" fill="#1F5262"/>
<path d="M212.653 215.066C215.213 218.478 218.34 221.037 221.753 223.028C225.449 225.018 229.146 225.871 233.127 225.871C237.108 225.871 241.089 225.018 244.501 223.028C248.198 221.037 251.326 218.478 253.6 215.066H212.653Z" fill="#1F5262"/>
<path d="M212.653 235.54C210.094 232.127 207.25 229.568 203.554 227.862C199.857 226.156 196.161 225.019 192.18 225.019C188.199 225.019 184.502 225.872 180.805 227.862C177.393 229.568 174.265 232.412 171.706 235.54H212.653Z" fill="#628794"/>
<path d="M130.759 235.539C133.318 238.667 136.446 241.226 139.858 242.932C143.555 244.639 147.251 245.492 151.232 245.492C155.213 245.492 159.194 244.639 162.607 242.932C166.303 241.226 169.431 238.667 171.706 235.539H130.759Z" fill="#628794"/>
<path d="M212.653 235.539C215.213 238.667 218.34 241.226 221.753 242.932C222.321 243.217 222.89 243.501 223.459 243.785L237.392 235.539H212.653Z" fill="#628794"/>
<path d="M209.525 252.316C207.819 250.61 205.829 249.188 203.554 248.051C200.142 246.345 196.161 245.207 192.18 245.207C188.199 245.207 184.502 246.06 180.805 248.051C177.393 249.757 174.265 252.316 171.706 255.729H203.269L209.525 252.316Z" fill="#1F5262"/>
<path d="M130.759 255.729C133.318 259.141 136.446 261.7 139.858 263.691C143.555 265.681 147.251 266.534 151.232 266.534C155.213 266.534 159.194 265.681 162.607 263.691C166.303 261.7 169.431 259.141 171.706 255.729H130.759Z" fill="#1F5262"/>
<path d="M130.759 276.202C133.318 279.33 136.446 281.889 139.858 283.595C143.27 285.302 147.251 286.155 151.232 286.155C151.801 286.155 152.085 286.155 152.654 286.155L169.431 276.202H130.759Z" fill="#628794"/>
</g>
<path d="M130.517 21.3165C59.5476 21.3165 7.59766 39.8991 7.59766 53.5325V124.17H254.647L253.437 53.5325C253.437 39.8991 201.487 21.3165 130.517 21.3165Z" fill="#1B3139"/>
<mask id="mask0_1706_3560" style="mask-type:alpha" maskUnits="userSpaceOnUse" x="8" y="71" width="247" height="44">
<path d="M8.51074 80.5285C8.51074 75.4428 12.6335 71.3201 17.7191 71.3201H245.166C250.252 71.3201 254.374 75.4428 254.374 80.5284V114.599H8.51074V80.5285Z" fill="white"/>
</mask>
<g mask="url(#mask0_1706_3560)">
<path d="M6.57617 63.0322H257.044V121.045H6.57617V63.0322Z" fill="#90A5B1"/>
</g>
<path d="M128.616 83.334L126.186 88.2732C126.109 88.4301 125.994 88.5652 125.852 88.6665C125.71 88.7678 125.544 88.8321 125.371 88.8533L119.93 89.653C119.729 89.6785 119.54 89.7605 119.384 89.8895C119.229 90.0185 119.113 90.189 119.05 90.3813C118.988 90.5736 118.981 90.7798 119.031 90.9756C119.082 91.1715 119.187 91.349 119.334 91.4875L123.27 95.3291C123.394 95.452 123.488 95.6029 123.543 95.7693C123.597 95.9357 123.611 96.1127 123.583 96.2856L122.642 101.711C122.608 101.91 122.629 102.115 122.705 102.302C122.78 102.489 122.907 102.652 123.07 102.771C123.233 102.89 123.427 102.961 123.628 102.976C123.83 102.991 124.031 102.949 124.21 102.855L129.087 100.3C129.24 100.215 129.413 100.17 129.589 100.17C129.764 100.17 129.937 100.215 130.09 100.3L134.967 102.855C135.146 102.949 135.347 102.991 135.549 102.976C135.75 102.961 135.944 102.89 136.107 102.771C136.27 102.652 136.397 102.489 136.472 102.302C136.548 102.115 136.57 101.91 136.535 101.711L135.61 96.2856C135.579 96.1139 135.589 95.9373 135.641 95.7708C135.693 95.6043 135.785 95.4527 135.908 95.3291L139.859 91.4875C140 91.3465 140.1 91.169 140.147 90.9749C140.193 90.7807 140.185 90.5775 140.124 90.3875C140.062 90.1976 139.949 90.0284 139.797 89.8988C139.645 89.7691 139.46 89.6841 139.263 89.653L133.806 88.8533C133.634 88.8294 133.47 88.7642 133.328 88.6632C133.186 88.5622 133.07 88.4284 132.991 88.2732L130.561 83.334C130.472 83.1519 130.334 82.9985 130.162 82.8912C129.99 82.7838 129.791 82.7269 129.589 82.7269C129.386 82.7269 129.187 82.7838 129.016 82.8912C128.844 82.9985 128.705 83.1519 128.616 83.334Z" fill="#1B3139"/>
<g clip-path="url(#clip1_1706_3560)">
<path d="M131.869 255.49C111.393 255.37 92.6584 261.144 78.1787 270.749L104.372 285.755C121.648 278.747 140.973 278.747 158.249 285.755L184.323 270.709C170.109 261.317 151.853 255.61 131.869 255.49Z" fill="#C4CCD6"/>
<path d="M131.245 255.491H131.87C151.814 255.611 170.11 261.318 184.323 270.683L158.183 285.703C149.787 282.253 140.799 280.477 131.723 280.474H131.284C122.028 280.436 112.856 282.245 104.306 285.796L78.1792 270.71C92.5126 261.198 111.021 255.451 131.245 255.451V255.491ZM131.245 251.061C110.994 251.061 91.3557 256.741 75.7459 267.025L69.8291 271.016L75.9986 274.554L102.126 289.561L104.014 290.651L106.008 289.8C114.02 286.499 122.607 284.821 131.271 284.864H131.683C140.182 284.879 148.598 286.536 156.468 289.747L158.475 290.585L160.35 289.507L186.504 274.488L192.687 270.936L186.73 267.011C171.319 256.874 151.854 251.22 131.883 251.047L131.245 251.061Z" fill="#1B3139"/>
<path d="M110.078 276.345L109.772 265.702L111.527 265.117L117.644 273.884L116.048 274.416L114.612 272.207L111.567 273.218L111.687 275.759L110.078 276.345ZM111.301 267.471L111.501 271.981L113.894 271.183L111.381 267.445L111.301 267.471Z" fill="#1B3139"/>
<path d="M118.998 273.603L118.785 272.273L122.056 267.257L118.147 267.869L117.921 266.472L123.745 265.554L123.957 266.885L120.647 271.913L124.729 271.262L124.955 272.672L118.998 273.603Z" fill="#1B3139"/>
<path d="M129.743 272.632C129.37 272.659 128.995 272.602 128.647 272.464C128.3 272.325 127.988 272.11 127.735 271.834C127.241 271.147 126.997 270.311 127.044 269.466V265.209H128.599V269.279C128.573 269.776 128.714 270.268 128.998 270.676C129.138 270.851 129.32 270.988 129.527 271.074C129.734 271.16 129.959 271.193 130.182 271.168C130.429 271.173 130.674 271.127 130.903 271.034C131.132 270.94 131.339 270.8 131.511 270.623C131.705 270.413 131.853 270.165 131.947 269.895C132.04 269.625 132.078 269.338 132.056 269.053V265.195H133.625V272.459H132.296L132.163 271.381H132.083C131.871 271.753 131.564 272.061 131.192 272.273C130.753 272.528 130.25 272.653 129.743 272.632Z" fill="#1B3139"/>
<path d="M135.564 272.565L135.764 271.235L137.506 271.501L138.104 267.51C138.125 267.449 138.131 267.383 138.122 267.318C138.113 267.254 138.088 267.192 138.051 267.139C138.013 267.086 137.963 267.042 137.905 267.012C137.848 266.982 137.784 266.966 137.718 266.965L136.575 266.792L136.774 265.462L138.49 265.728C138.667 265.742 138.839 265.792 138.997 265.874C139.155 265.956 139.294 266.069 139.407 266.207C139.521 266.346 139.602 266.509 139.644 266.684C139.685 266.86 139.686 267.042 139.647 267.218V267.391H139.726C139.866 266.924 140.174 266.526 140.59 266.273C141.088 266.038 141.648 265.973 142.186 266.087L143.303 266.26L143.064 267.883L141.508 267.643C141.258 267.595 141.001 267.605 140.756 267.675C140.511 267.744 140.286 267.87 140.099 268.042C139.725 268.394 139.485 268.864 139.42 269.373L139.075 271.754L141.295 272.087L141.096 273.417L135.564 272.565Z" fill="#1B3139"/>
<path d="M146.92 275.133C146.297 274.95 145.736 274.601 145.298 274.122C144.887 273.655 144.611 273.085 144.5 272.473C144.395 271.795 144.454 271.101 144.673 270.451C144.876 269.788 145.231 269.182 145.71 268.681C146.149 268.233 146.707 267.92 147.319 267.777C147.965 267.646 148.634 267.687 149.26 267.896C149.874 268.073 150.424 268.424 150.842 268.907C151.221 269.351 151.474 269.889 151.573 270.464C151.674 271.065 151.629 271.681 151.44 272.26C151.44 272.353 151.44 272.446 151.347 272.553L151.214 272.912L146.015 271.236C145.931 271.509 145.901 271.798 145.929 272.083C145.956 272.368 146.04 272.646 146.175 272.898C146.434 273.334 146.847 273.657 147.332 273.803C147.691 273.948 148.088 273.971 148.462 273.87C148.779 273.769 149.057 273.574 149.26 273.311L150.749 273.79C150.373 274.388 149.82 274.853 149.167 275.12C148.444 275.398 147.645 275.403 146.92 275.133ZM148.834 269.174C148.404 269.023 147.935 269.023 147.505 269.174C147.05 269.341 146.675 269.673 146.454 270.105L150.124 271.275C150.187 271.054 150.204 270.821 150.174 270.593C150.144 270.364 150.069 270.144 149.951 269.945C149.695 269.568 149.313 269.294 148.874 269.174H148.834Z" fill="#1B3139"/>
</g>
<path fill-rule="evenodd" clip-rule="evenodd" d="M0.00195366 53.9226C0.00195366 32.648 58.5968 14.2565 130.804 14.2565C203.026 14.2565 261.62 32.648 261.564 53.9226V226.338C261.564 227.844 261.172 229.324 260.425 230.632C259.678 231.94 258.603 233.03 257.305 233.794L130.889 307.161L4.2603 233.794C2.96307 233.03 1.88785 231.94 1.14096 230.632C0.394075 229.324 0.00142413 227.844 0.00195366 226.338V53.9226ZM130.955 297.74L130.856 297.797L130.955 297.741L130.955 297.74ZM253.164 226.997L130.955 297.74L8.64778 226.94C8.53598 226.875 8.44312 226.782 8.37853 226.671C8.31394 226.559 8.27988 226.432 8.2798 226.303V54.5356C8.05336 48.6733 18.2857 40.772 41.1423 34.2016H41.3547C41.7566 34.0947 42.1701 34.0376 42.5859 34.0317C43.8058 34.0317 44.9758 34.5166 45.8384 35.3796C46.701 36.2427 47.1856 37.4132 47.1856 38.6338C47.3742 41.1605 48.1324 41.8169 49.386 42.9022C49.935 43.3774 50.5789 43.9349 51.3116 44.7676C52.991 46.6762 55.0728 46.8215 57.3902 46.9832C58.393 47.0532 59.4399 47.1263 60.5174 47.3467C83.6912 51.8016 107.245 53.9785 130.842 53.8462H130.941C154.539 53.9785 178.092 51.8016 201.266 47.3467C202.344 47.1265 203.391 47.0536 204.395 46.9837C206.713 46.8223 208.797 46.6773 210.478 44.7689C211.211 43.9359 211.856 43.3783 212.406 42.9029C213.661 41.8179 214.421 41.1609 214.612 38.6338C214.616 37.4144 215.102 36.246 215.963 35.3838C216.825 34.5215 217.993 34.0355 219.212 34.0317C219.632 34.0376 220.05 34.0946 220.457 34.2016H220.669C243.526 40.772 253.744 48.6733 253.532 54.5356V226.359C253.532 226.489 253.498 226.615 253.433 226.727C253.369 226.839 253.276 226.932 253.164 226.997Z" fill="#1B3139"/>
<path d="M256.559 114.184H5.16992V163.91H256.559V114.184Z" fill="#1B3139"/>
<path d="M87.0665 135.709V122.817H91.4313C92.4135 122.817 93.2239 122.989 93.8623 123.333C94.5007 123.664 94.9734 124.125 95.2804 124.714C95.5873 125.304 95.7408 125.979 95.7408 126.74C95.7408 127.501 95.5873 128.177 95.2804 128.766C94.9734 129.355 94.5007 129.822 93.8623 130.166C93.2239 130.497 92.4135 130.663 91.4313 130.663H89.0187V135.709H87.0665ZM89.0187 128.913H91.3392C92.1741 128.913 92.7818 128.717 93.1625 128.324C93.5554 127.931 93.7518 127.403 93.7518 126.74C93.7518 126.089 93.5554 125.567 93.1625 125.175C92.7818 124.769 92.1741 124.567 91.3392 124.567H89.0187V128.913ZM98.0541 135.709V134.015H101.111V124.751C101.111 124.346 100.915 124.143 100.522 124.143H98.312V122.449H100.872C101.584 122.449 102.124 122.639 102.493 123.02C102.873 123.388 103.063 123.928 103.063 124.641V134.015H106.139V135.709H98.0541ZM112.541 135.93C111.817 135.93 111.209 135.807 110.718 135.562C110.227 135.304 109.858 134.966 109.613 134.549C109.367 134.119 109.244 133.652 109.244 133.149C109.244 132.253 109.57 131.553 110.22 131.05C110.883 130.546 111.817 130.294 113.02 130.294H115.377V130.092C115.377 128.717 114.739 128.029 113.462 128.029C112.934 128.029 112.486 128.146 112.117 128.379C111.761 128.6 111.522 128.962 111.399 129.466H109.447C109.545 128.508 109.956 127.753 110.681 127.2C111.417 126.636 112.344 126.353 113.462 126.353C114.812 126.353 115.795 126.685 116.408 127.348C117.022 128.011 117.329 128.925 117.329 130.092V135.709H115.672L115.506 134.365H115.377C115.107 134.794 114.769 135.163 114.364 135.47C113.959 135.777 113.351 135.93 112.541 135.93ZM112.909 134.291C113.707 134.291 114.303 134.051 114.696 133.573C115.101 133.082 115.322 132.461 115.359 131.713H113.222C112.522 131.713 112.025 131.829 111.731 132.062C111.448 132.283 111.307 132.597 111.307 133.002C111.307 133.407 111.448 133.726 111.731 133.959C112.025 134.18 112.418 134.291 112.909 134.291ZM125.407 135.709C124.511 135.709 123.799 135.494 123.271 135.064C122.743 134.622 122.479 133.843 122.479 132.725V128.232H120.177V126.574H121.54C122.166 126.574 122.534 126.267 122.645 125.653L122.921 124.18H124.431V126.574H128.041V128.232H124.431V132.689C124.431 133.167 124.535 133.505 124.744 133.702C124.965 133.886 125.339 133.978 125.867 133.978H128.004V135.709H125.407ZM131.201 139.761V138.048H132.693C133.123 138.048 133.43 137.956 133.614 137.772C133.81 137.6 133.908 137.305 133.908 136.888V128.232H131.588V126.574H133.908V125.304C133.908 124.284 134.16 123.554 134.663 123.112C135.167 122.67 135.885 122.449 136.818 122.449H139.047V124.162H137.058C136.628 124.162 136.321 124.248 136.137 124.42C135.953 124.591 135.861 124.892 135.861 125.322V126.574H139.047V128.232H135.861V136.906C135.861 137.925 135.609 138.656 135.105 139.098C134.602 139.54 133.878 139.761 132.932 139.761H131.201ZM146.498 135.93C145.627 135.93 144.847 135.734 144.159 135.341C143.472 134.948 142.932 134.395 142.539 133.683C142.146 132.959 141.949 132.112 141.949 131.142C141.949 130.172 142.146 129.331 142.539 128.619C142.932 127.894 143.472 127.336 144.159 126.943C144.847 126.55 145.633 126.353 146.517 126.353C147.401 126.353 148.18 126.55 148.856 126.943C149.543 127.336 150.077 127.894 150.458 128.619C150.851 129.331 151.047 130.172 151.047 131.142C151.047 132.112 150.851 132.959 150.458 133.683C150.065 134.395 149.525 134.948 148.837 135.341C148.162 135.734 147.382 135.93 146.498 135.93ZM146.498 134.07C146.965 134.07 147.395 133.966 147.787 133.757C148.18 133.548 148.493 133.229 148.727 132.799C148.972 132.357 149.095 131.805 149.095 131.142C149.095 130.466 148.972 129.914 148.727 129.484C148.493 129.054 148.18 128.735 147.787 128.526C147.407 128.318 146.983 128.213 146.517 128.213C146.05 128.213 145.62 128.318 145.227 128.526C144.835 128.735 144.515 129.054 144.27 129.484C144.037 129.914 143.92 130.466 143.92 131.142C143.92 132.148 144.172 132.891 144.675 133.37C145.191 133.837 145.798 134.07 146.498 134.07ZM153.434 135.709V134.015H155.663V128.876C155.663 128.471 155.466 128.269 155.073 128.269H153.618V126.574H155.81C156.313 126.574 156.725 126.722 157.044 127.016C157.363 127.299 157.523 127.698 157.523 128.213V128.434H157.615C157.75 127.747 158.038 127.231 158.48 126.887C158.935 126.531 159.591 126.353 160.451 126.353H161.869V128.416H159.88C159.156 128.416 158.597 128.668 158.204 129.171C157.811 129.674 157.615 130.276 157.615 130.976V134.015H160.451V135.709H153.434ZM163.519 135.709V126.574H165.14L165.306 127.642H165.398C165.557 127.262 165.803 126.955 166.135 126.722C166.466 126.476 166.859 126.353 167.313 126.353C167.755 126.353 168.142 126.464 168.473 126.685C168.805 126.906 169.051 127.225 169.21 127.642H169.284C169.443 127.274 169.695 126.967 170.039 126.722C170.383 126.476 170.806 126.353 171.31 126.353C171.985 126.353 172.494 126.574 172.838 127.016C173.194 127.458 173.372 128.078 173.372 128.876V135.709H171.494V129.263C171.494 128.895 171.414 128.606 171.254 128.398C171.107 128.177 170.868 128.066 170.536 128.066C170.205 128.066 169.928 128.195 169.707 128.453C169.499 128.711 169.394 129.073 169.394 129.539V135.709H167.497V129.263C167.497 128.895 167.424 128.606 167.276 128.398C167.129 128.177 166.89 128.066 166.558 128.066C166.227 128.066 165.95 128.195 165.729 128.453C165.508 128.711 165.398 129.073 165.398 129.539V135.709H163.519ZM80.7532 154.709L84.6023 141.817H86.9228L90.7719 154.709H88.654L87.7884 151.615H83.7367L82.8711 154.709H80.7532ZM85.7073 144.58L84.1787 150.05H87.3464L85.8178 144.58H85.7073ZM92.6984 154.709V153.015H94.9269V147.876C94.9269 147.471 94.7304 147.269 94.3375 147.269H92.8826V145.574H95.0742C95.5776 145.574 95.9889 145.722 96.3081 146.016C96.6274 146.299 96.787 146.698 96.787 147.213V147.434H96.8791C97.0141 146.747 97.3026 146.231 97.7446 145.887C98.1989 145.531 98.8558 145.353 99.7152 145.353H101.133V147.416H99.1443C98.4199 147.416 97.8613 147.668 97.4684 148.171C97.0755 148.674 96.8791 149.276 96.8791 149.976V153.015H99.7152V154.709H92.6984ZM107.977 154.93C107.13 154.93 106.369 154.734 105.693 154.341C105.03 153.948 104.509 153.395 104.128 152.683C103.747 151.959 103.557 151.112 103.557 150.142C103.557 149.172 103.747 148.331 104.128 147.619C104.521 146.906 105.049 146.354 105.712 145.961C106.375 145.556 107.13 145.353 107.977 145.353C109.144 145.353 110.083 145.648 110.795 146.237C111.519 146.814 111.98 147.612 112.176 148.631H110.132C110.009 148.189 109.757 147.84 109.377 147.582C109.009 147.324 108.536 147.195 107.959 147.195C107.541 147.195 107.142 147.305 106.762 147.526C106.393 147.747 106.093 148.079 105.859 148.521C105.638 148.951 105.528 149.491 105.528 150.142C105.528 150.78 105.638 151.32 105.859 151.762C106.093 152.204 106.393 152.542 106.762 152.775C107.142 152.996 107.541 153.107 107.959 153.107C108.548 153.107 109.021 152.978 109.377 152.72C109.733 152.462 109.985 152.106 110.132 151.652H112.176C111.931 152.659 111.452 153.457 110.74 154.046C110.028 154.635 109.107 154.93 107.977 154.93ZM114.71 154.709V141.449H116.663V146.937C116.908 146.483 117.301 146.108 117.841 145.814C118.382 145.507 118.989 145.353 119.665 145.353C120.794 145.353 121.654 145.697 122.243 146.385C122.832 147.06 123.127 148.036 123.127 149.313V154.709H121.175V149.589C121.175 148.828 120.991 148.239 120.622 147.821C120.254 147.404 119.744 147.195 119.094 147.195C118.418 147.195 117.841 147.422 117.363 147.876C116.896 148.331 116.663 148.988 116.663 149.847V154.709H114.71ZM129.75 144.175C129.32 144.175 128.958 144.04 128.663 143.769C128.381 143.487 128.24 143.143 128.24 142.738C128.24 142.333 128.381 141.995 128.663 141.725C128.958 141.455 129.32 141.32 129.75 141.32C130.192 141.32 130.554 141.455 130.836 141.725C131.131 141.995 131.278 142.333 131.278 142.738C131.278 143.143 131.131 143.487 130.836 143.769C130.554 144.04 130.192 144.175 129.75 144.175ZM126.085 154.709V153.015H128.958V147.876C128.958 147.471 128.761 147.269 128.369 147.269H126.343V145.574H128.718C129.48 145.574 130.032 145.752 130.376 146.108C130.732 146.452 130.91 147.005 130.91 147.766V153.015H133.783V154.709H126.085ZM141.971 154.709C141.075 154.709 140.363 154.494 139.835 154.064C139.307 153.622 139.043 152.843 139.043 151.725V147.232H136.741V145.574H138.104C138.73 145.574 139.098 145.267 139.209 144.653L139.485 143.18H140.995V145.574H144.605V147.232H140.995V151.689C140.995 152.167 141.1 152.505 141.308 152.702C141.529 152.886 141.904 152.978 142.432 152.978H144.568V154.709H141.971ZM152.13 154.93C151.246 154.93 150.467 154.734 149.791 154.341C149.116 153.935 148.588 153.377 148.207 152.665C147.827 151.953 147.636 151.124 147.636 150.178C147.636 149.221 147.821 148.38 148.189 147.655C148.57 146.931 149.098 146.366 149.773 145.961C150.46 145.556 151.252 145.353 152.149 145.353C153.033 145.353 153.794 145.556 154.432 145.961C155.071 146.354 155.562 146.882 155.906 147.545C156.262 148.208 156.44 148.938 156.44 149.736C156.44 149.859 156.44 149.994 156.44 150.142C156.44 150.277 156.434 150.43 156.421 150.602H149.552C149.613 151.449 149.889 152.094 150.381 152.536C150.872 152.966 151.449 153.18 152.112 153.18C152.689 153.18 153.143 153.064 153.475 152.83C153.818 152.585 154.07 152.253 154.23 151.836H156.2C155.979 152.708 155.519 153.444 154.819 154.046C154.119 154.635 153.223 154.93 152.13 154.93ZM152.13 147.048C151.529 147.048 150.994 147.232 150.528 147.6C150.061 147.956 149.761 148.46 149.625 149.11H154.488C154.438 148.496 154.199 147.999 153.769 147.619C153.34 147.238 152.793 147.048 152.13 147.048ZM163.191 154.93C162.344 154.93 161.583 154.734 160.908 154.341C160.245 153.948 159.723 153.395 159.342 152.683C158.962 151.959 158.771 151.112 158.771 150.142C158.771 149.172 158.962 148.331 159.342 147.619C159.735 146.906 160.263 146.354 160.926 145.961C161.589 145.556 162.344 145.353 163.191 145.353C164.358 145.353 165.297 145.648 166.009 146.237C166.734 146.814 167.194 147.612 167.39 148.631H165.346C165.223 148.189 164.972 147.84 164.591 147.582C164.223 147.324 163.75 147.195 163.173 147.195C162.756 147.195 162.357 147.305 161.976 147.526C161.608 147.747 161.307 148.079 161.074 148.521C160.853 148.951 160.742 149.491 160.742 150.142C160.742 150.78 160.853 151.32 161.074 151.762C161.307 152.204 161.608 152.542 161.976 152.775C162.357 152.996 162.756 153.107 163.173 153.107C163.762 153.107 164.235 152.978 164.591 152.72C164.947 152.462 165.199 152.106 165.346 151.652H167.39C167.145 152.659 166.666 153.457 165.954 154.046C165.242 154.635 164.321 154.93 163.191 154.93ZM175.1 154.709C174.204 154.709 173.491 154.494 172.964 154.064C172.436 153.622 172.172 152.843 172.172 151.725V147.232H169.87V145.574H171.232C171.859 145.574 172.227 145.267 172.337 144.653L172.614 143.18H174.124V145.574H177.733V147.232H174.124V151.689C174.124 152.167 174.228 152.505 174.437 152.702C174.658 152.886 175.032 152.978 175.56 152.978H177.697V154.709H175.1Z" fill="white"/>
<path d="M88.9496 58.3244V56.6363C88.9485 56.5739 88.9283 56.5133 88.8916 56.4629C88.855 56.4124 88.8037 56.3744 88.7447 56.3541C88.6857 56.3339 88.6219 56.3322 88.562 56.3495C88.5021 56.3667 88.4489 56.402 88.4097 56.4506C87.7851 57.1792 87.0077 57.7611 86.1329 58.155C85.258 58.5489 84.3071 58.7451 83.3478 58.7296C82.3188 58.7347 81.3 58.5258 80.356 58.116C79.412 57.7063 78.5634 57.1046 77.8641 56.3493C76.398 54.7279 75.602 52.61 75.6369 50.4238C75.5895 49.3706 75.7523 48.3185 76.1158 47.329C76.4794 46.3395 77.0363 45.4324 77.7542 44.6607C78.4721 43.889 79.3365 43.2681 80.2969 42.8345C81.2573 42.4008 82.2945 42.1629 83.3478 42.1349C84.2989 42.1091 85.2442 42.2905 86.1182 42.6665C86.9923 43.0426 87.7741 43.6042 88.4097 44.3126C88.4587 44.3483 88.5178 44.3675 88.5784 44.3675C88.639 44.3675 88.6981 44.3483 88.7472 44.3126C88.8064 44.2916 88.8577 44.2528 88.894 44.2014C88.9303 44.1499 88.9497 44.0885 88.9496 44.0256V35.5847H92.4423V58.2738L88.9496 58.3244ZM89.1015 50.4238C89.0815 49.4467 88.7737 48.4973 88.2167 47.6945C87.6596 46.8917 86.8781 46.2714 85.9701 45.9112C85.0621 45.551 84.068 45.4671 83.1125 45.6699C82.157 45.8727 81.2826 46.3532 80.5989 47.0512C79.9153 47.7492 79.4528 48.6336 79.2695 49.5935C79.0861 50.5534 79.1901 51.5461 79.5683 52.4471C79.9466 53.3481 80.5823 54.1174 81.3957 54.6584C82.2091 55.1994 83.1641 55.4881 84.1409 55.4883C85.4657 55.4618 86.7274 54.9165 87.6549 53.9696C88.5824 53.0227 89.1017 51.7496 89.1015 50.4238ZM107.662 58.3244V56.6363C107.685 56.5689 107.682 56.4952 107.654 56.4297C107.626 56.3641 107.575 56.3114 107.51 56.2818C107.459 56.2504 107.401 56.2337 107.341 56.2337C107.281 56.2337 107.223 56.2504 107.172 56.2818C106.552 57.0183 105.777 57.6079 104.901 58.0079C104.026 58.4079 103.073 58.6083 102.11 58.5946C100.023 58.4313 98.0737 57.4862 96.652 55.9482C95.2302 54.4101 94.4405 52.3922 94.4405 50.2972C94.4405 48.2022 95.2302 46.1842 96.652 44.6462C98.0737 43.1081 100.023 42.1631 102.11 41.9998C103.062 41.9602 104.01 42.1337 104.886 42.5076C105.761 42.8814 106.543 43.4462 107.172 44.1607C107.213 44.2087 107.266 44.2438 107.326 44.2618C107.386 44.2798 107.45 44.2799 107.51 44.2619C107.568 44.239 107.618 44.1996 107.654 44.1487C107.69 44.0977 107.71 44.0373 107.712 43.975V42.3881H111.171V58.1894L107.662 58.3244ZM107.813 50.4238C107.794 49.4467 107.486 48.4973 106.929 47.6945C106.372 46.8917 105.59 46.2714 104.682 45.9112C103.774 45.551 102.78 45.4671 101.824 45.6699C100.869 45.8727 99.9946 46.3532 99.311 47.0512C98.6273 47.7492 98.1648 48.6336 97.9814 49.5935C97.7981 50.5534 97.9021 51.5461 98.2803 52.4471C98.6586 53.3481 99.2943 54.1174 100.108 54.6584C100.921 55.1994 101.876 55.4881 102.853 55.4883C104.175 55.4574 105.432 54.9103 106.356 53.9638C107.28 53.0174 107.797 51.7468 107.797 50.4238H107.813ZM137.257 58.3244V56.6363C137.261 56.5748 137.245 56.5138 137.211 56.4621C137.178 56.4104 137.129 56.3709 137.071 56.3493C137.02 56.3179 136.962 56.3013 136.902 56.3013C136.843 56.3013 136.784 56.3179 136.734 56.3493C136.113 57.085 135.337 57.6739 134.462 58.0738C133.587 58.4737 132.634 58.6746 131.672 58.6621C129.584 58.4988 127.635 57.5538 126.213 56.0157C124.791 54.4777 124.002 52.4597 124.002 50.3647C124.002 48.2697 124.791 46.2517 126.213 44.7137C127.635 43.1756 129.584 42.2306 131.672 42.0673C132.623 42.029 133.571 42.203 134.446 42.5767C135.322 42.9505 136.103 43.5146 136.734 44.2282C136.774 44.2762 136.827 44.3114 136.887 44.3294C136.947 44.3474 137.011 44.3474 137.071 44.3295C137.127 44.3058 137.175 44.2658 137.208 44.2146C137.241 44.1634 137.258 44.1034 137.257 44.0425V42.4556H140.732V58.2569L137.257 58.3244ZM137.425 50.4238C137.405 49.4467 137.098 48.4973 136.541 47.6945C135.984 46.8917 135.202 46.2714 134.294 45.9112C133.386 45.551 132.392 45.4671 131.436 45.6699C130.481 45.8727 129.606 46.3532 128.923 47.0512C128.239 47.7492 127.777 48.6336 127.593 49.5935C127.41 50.5534 127.514 51.5461 127.892 52.4471C128.27 53.3481 128.906 54.1174 129.72 54.6584C130.533 55.1994 131.488 55.4881 132.465 55.4883C133.787 55.4574 135.044 54.9103 135.968 53.9638C136.892 53.0174 137.409 51.7468 137.408 50.4238H137.425ZM146.874 56.7376V58.3244H143.381V35.6354H146.874V44.2113C146.874 44.2742 146.893 44.3356 146.93 44.387C146.966 44.4384 147.017 44.4773 147.077 44.4983C147.128 44.5264 147.186 44.5411 147.245 44.5411C147.304 44.5411 147.362 44.5264 147.414 44.4983C148.039 43.7697 148.816 43.1878 149.691 42.7939C150.566 42.3999 151.517 42.2038 152.476 42.2193C153.504 42.213 154.521 42.4198 155.465 42.8265C156.409 43.2333 157.258 43.8313 157.96 44.5827C159.423 46.2059 160.218 48.3226 160.187 50.5082C160.237 51.5628 160.075 52.6167 159.713 53.6081C159.35 54.5996 158.794 55.5088 158.076 56.2823C157.358 57.0558 156.492 57.6782 155.531 58.1129C154.569 58.5476 153.531 58.786 152.476 58.814C151.523 58.84 150.576 58.6569 149.702 58.2778C148.828 57.8987 148.047 57.3326 147.414 56.6194C147.352 56.5558 147.267 56.5194 147.178 56.5181H147.077C147.024 56.5316 146.975 56.5591 146.937 56.5977C146.898 56.6363 146.871 56.6846 146.857 56.7376H146.874ZM151.683 55.5558C152.688 55.576 153.677 55.2961 154.522 54.752C155.368 54.2079 156.032 53.4241 156.431 52.5006C156.83 51.5772 156.944 50.5558 156.761 49.5668C156.577 48.5778 156.103 47.666 155.399 46.9475C154.696 46.2291 153.794 45.7366 152.809 45.5328C151.825 45.329 150.802 45.4232 149.871 45.8034C148.94 46.1836 148.144 46.8325 147.583 47.6674C147.022 48.5023 146.722 49.4854 146.722 50.4913C146.722 51.8143 147.239 53.0849 148.163 54.0313C149.087 54.9778 150.344 55.525 151.666 55.5558H151.683ZM170.243 45.7644C170.523 45.7352 170.806 45.7352 171.087 45.7644V42.1855C170.89 42.1633 170.692 42.1633 170.496 42.1855C169.621 42.1757 168.759 42.393 167.993 42.8161C167.227 43.2392 166.584 43.8537 166.126 44.5996C166.092 44.6555 166.041 44.6989 165.98 44.7232C165.919 44.7475 165.852 44.7516 165.789 44.7346C165.726 44.7166 165.671 44.679 165.632 44.6273C165.592 44.5757 165.57 44.5127 165.569 44.4476V42.5062H162.11V58.3076H165.603V51.386C165.569 47.8409 167.341 45.7644 170.209 45.7644H170.243ZM173.28 42.5231V58.3244H176.807V42.5231H173.28ZM174.967 35.6354C174.544 35.6354 174.129 35.7611 173.777 35.9967C173.424 36.2323 173.15 36.5671 172.988 36.9589C172.825 37.3507 172.783 37.7817 172.866 38.1976C172.948 38.6135 173.152 38.9955 173.452 39.2954C173.752 39.5952 174.134 39.7994 174.549 39.8822C174.965 39.9649 175.396 39.9224 175.787 39.7601C176.179 39.5979 176.514 39.3231 176.749 38.9705C176.985 38.6179 177.11 38.2034 177.11 37.7794C177.11 37.2165 176.889 36.6763 176.495 36.2752C176.1 35.874 175.564 35.6442 175.001 35.6354H174.967ZM187.133 42.1349C186.03 42.0902 184.929 42.2735 183.9 42.6734C182.871 43.0732 181.936 43.6811 181.152 44.4589C180.368 45.2367 179.753 46.1678 179.345 47.1941C178.937 48.2204 178.745 49.3199 178.781 50.4238C178.738 51.5275 178.924 52.628 179.327 53.6563C179.73 54.6845 180.341 55.6181 181.123 56.3983C181.904 57.1785 182.839 57.7884 183.867 58.1896C184.896 58.5909 185.996 58.7747 187.099 58.7296C189.483 58.7493 191.788 57.8761 193.561 56.2818L191.57 54.1884C190.402 55.0473 189.003 55.5354 187.555 55.5896C186.212 55.5896 184.925 55.056 183.975 54.1062C183.026 53.1565 182.493 51.8683 182.493 50.5251C182.493 49.1819 183.026 47.8937 183.975 46.9439C184.925 45.9941 186.212 45.4606 187.555 45.4606C188.99 45.476 190.379 45.969 191.503 46.8617L193.561 44.6334C191.817 43.0082 189.516 42.114 187.133 42.1349ZM199.619 51.3523C199.684 51.326 199.756 51.326 199.821 51.3523C199.903 51.3606 199.981 51.3963 200.04 51.4536L205.625 58.392H209.928L202.706 49.5291C202.657 49.4733 202.629 49.4012 202.629 49.3265C202.629 49.2517 202.657 49.1796 202.706 49.1239L209.354 42.4725H205.102L199.366 48.2292C199.318 48.2611 199.262 48.2782 199.205 48.2782C199.148 48.2782 199.092 48.2611 199.045 48.2292C198.989 48.2055 198.941 48.1654 198.908 48.1143C198.875 48.0631 198.858 48.0031 198.859 47.9422V35.5172H195.367V58.2063H198.859V52.0613C198.861 51.9723 198.897 51.8873 198.961 51.825L199.619 51.3523ZM215.631 58.7296C216.346 58.7942 217.067 58.7128 217.749 58.4903C218.432 58.2678 219.062 57.9089 219.602 57.4352C220.141 56.9616 220.579 56.3832 220.888 55.7351C221.198 55.087 221.372 54.3827 221.402 53.6651C221.402 51.5042 220.052 50.0017 217.268 49.0901L215.361 48.4655C214.079 48.0435 213.471 47.4357 213.471 46.6085C213.471 45.7813 214.315 44.9203 215.547 44.9203C216.167 44.9697 216.762 45.1897 217.265 45.5562C217.768 45.9227 218.16 46.4212 218.398 46.9968L221.199 45.4943C220.671 44.4555 219.86 43.5872 218.86 42.9897C217.86 42.3923 216.711 42.0901 215.547 42.118C214.873 42.0555 214.194 42.1314 213.551 42.341C212.908 42.5506 212.315 42.8896 211.808 43.337C211.301 43.7844 210.89 44.3309 210.602 44.9429C210.313 45.5548 210.153 46.2193 210.13 46.8955C210.13 49.0901 211.447 50.5757 214.129 51.4198L216.07 52.0444C217.453 52.4834 218.01 53.0236 218.01 53.9183C218.01 55.2688 216.761 55.7415 215.698 55.7415C214.972 55.7134 214.27 55.4685 213.684 55.0383C213.098 54.6081 212.653 54.0123 212.408 53.3275L209.59 54.813C210.072 56.0084 210.911 57.0259 211.992 57.7269C213.073 58.4278 214.344 58.778 215.631 58.7296ZM120.789 58.5608C121.675 58.5612 122.56 58.4992 123.438 58.3751V55.3533C122.878 55.4253 122.315 55.4647 121.75 55.4714C120.333 55.4714 119.253 55.2351 119.253 52.0951V45.6125C119.253 45.5347 119.283 45.4599 119.336 45.4034C119.39 45.3469 119.463 45.3129 119.54 45.3086H122.915V42.4556H119.54C119.463 42.4513 119.39 42.4174 119.336 42.3608C119.283 42.3043 119.253 42.2295 119.253 42.1517V37.7118H115.777V42.2868C115.777 42.3267 115.77 42.3662 115.754 42.4031C115.739 42.4399 115.717 42.4734 115.689 42.5017C115.66 42.5299 115.627 42.5523 115.59 42.5675C115.553 42.5828 115.514 42.5907 115.474 42.5907H113.044V45.4437H115.474C115.514 45.4437 115.553 45.4515 115.59 45.4668C115.627 45.4821 115.66 45.5045 115.689 45.5327C115.717 45.5609 115.739 45.5944 115.754 45.6313C115.77 45.6681 115.777 45.7076 115.777 45.7476V53.108C115.71 58.5608 119.321 58.5608 120.789 58.5608ZM66.3737 45.7982L54.5627 52.4327L41.9587 45.3424L41.3682 45.6631V50.8289L54.5627 58.2569L66.3737 51.6224V54.3572L54.5627 60.9918L41.9587 53.9014L41.3682 54.2391V55.1169L54.5627 62.5449L67.7573 55.1169V49.9511L67.1668 49.6135L54.5627 56.7038L42.7518 50.0693V47.3513L54.5627 53.969L67.7573 46.541V41.4765L67.0993 41.1051L54.5627 48.1616L43.3929 41.8647L54.5627 35.5847L63.7585 40.7506L64.5852 40.2947V39.6701L54.5627 34.0316L41.3682 41.4596V42.2699L54.5627 49.6979L66.3737 43.0633V45.7982Z" fill="white"/>
<defs>
<clipPath id="clip0_1706_3560">
<rect width="123.126" height="122.272" fill="white" transform="translate(130.759 164.167)"/>
</clipPath>
<clipPath id="clip1_1706_3560">
<rect width="122.871" height="39.5507" fill="white" transform="translate(69.8291 251.101)"/>
</clipPath>
</defs>
</svg>
